<?xml version="1.0" standalone="no"?>
<!DOCTYPE svg PUBLIC "-//W3C//DTD SVG 20010904//EN"
 "http://www.w3.org/TR/2001/REC-SVG-20010904/DTD/svg10.dtd">
<svg version="1.0" xmlns="http://www.w3.org/2000/svg"
 width="900.000000pt" height="900.000000pt" viewBox="0 0 900.000000 900.000000"
 preserveAspectRatio="xMidYMid meet">
<metadata>
Created by potrace 1.10, written by Peter Selinger 2001-2011
</metadata>
<g transform="translate(0.000000,900.000000) scale(0.100000,-0.100000)"
fill="#000000" stroke="none">
<path d="M1280 8985 c0 -9 -14 -16 -37 -20 -77 -11 -179 -38 -203 -53 -39 -24
-58 -53 -65 -99 -15 -99 -25 -85 381 -494 l374 -375 0 -85 c0 -46 -7 -109 -15
-139 -8 -30 -15 -77 -15 -104 0 -44 -15 -128 -41 -229 -11 -41 -56 -77 -96
-77 -12 0 -48 -7 -80 -15 -31 -8 -80 -15 -108 -15 -28 0 -77 -7 -108 -15 -32
-8 -97 -15 -144 -15 l-86 0 -376 374 c-367 365 -377 374 -424 381 -117 18
-170 -25 -200 -160 -36 -160 -38 -182 -34 -365 5 -192 12 -253 42 -355 9 -33
23 -81 30 -106 7 -26 18 -55 23 -65 10 -19 65 -136 76 -164 17 -41 113 -175
184 -259 100 -116 245 -240 346 -297 85 -48 246 -124 261 -124 9 0 29 -6 43
-14 32 -16 98 -34 167 -46 28 -4 68 -13 90 -19 62 -16 391 -13 440 4 22 8 53
15 69 15 34 0 129 26 169 46 16 8 39 14 51 14 12 0 27 5 33 11 6 6 19 8 29 5
21 -7 1684 -1667 1684 -1681 0 -5 -206 -215 -457 -467 -455 -455 -458 -458
-492 -452 -19 4 -46 13 -60 20 -40 21 -298 19 -348 -2 -41 -18 -111 -51 -148
-72 -13 -7 -87 -73 -164 -147 -104 -101 -146 -135 -165 -135 -48 0 -171 -22
-206 -37 -67 -28 -115 -56 -165 -94 -52 -39 -1222 -1210 -1264 -1264 -13 -16
-29 -43 -37 -60 -8 -16 -18 -37 -23 -45 -38 -65 -46 -106 -46 -245 0 -146 1
-151 56 -270 32 -71 104 -152 347 -394 277 -276 311 -302 454 -352 48 -17 77
-20 185 -17 132 4 147 7 263 62 60 28 119 84 715 681 585 584 654 657 683 715
50 102 62 147 62 227 l0 75 133 136 c136 141 181 198 208 267 39 98 49 145 49
234 0 85 -6 116 -41 229 l-11 33 454 455 c297 298 460 454 473 454 13 0 318
-298 885 -867 476 -476 906 -904 955 -951 50 -46 93 -90 98 -97 4 -7 1 -26 -7
-42 -29 -59 -63 -177 -75 -258 -5 -33 -15 -75 -21 -92 -15 -41 -9 -367 8 -435
15 -59 32 -132 42 -178 13 -59 41 -129 100 -250 97 -200 255 -389 445 -531 33
-25 67 -48 75 -52 8 -4 29 -16 45 -26 17 -11 64 -36 105 -56 41 -20 88 -42
103 -50 16 -8 38 -15 50 -15 12 0 31 -7 41 -15 11 -8 33 -15 49 -15 15 0 38
-5 50 -12 36 -19 144 -30 337 -35 183 -4 205 -2 365 34 109 24 149 57 160 130
15 99 25 85 -381 494 l-374 375 0 85 c0 46 7 109 15 139 8 30 15 77 15 104 0
44 15 128 41 229 11 41 56 77 96 77 12 0 48 7 80 15 31 8 80 15 108 15 28 0
77 7 108 15 32 8 97 15 144 15 l86 0 376 -374 c367 -365 377 -374 424 -381 82
-13 133 7 169 65 15 24 42 126 53 203 4 23 11 37 20 37 13 0 15 30 15 190 0
177 -1 191 -20 210 -13 13 -20 33 -20 58 0 21 -6 58 -14 83 -7 24 -21 71 -31
104 -19 65 -27 85 -73 185 -16 36 -33 72 -36 80 -17 41 -113 175 -184 259
-100 116 -245 240 -346 297 -85 48 -246 124 -261 124 -9 0 -29 6 -43 14 -32
16 -98 34 -167 46 -27 4 -68 13 -90 19 -62 16 -391 13 -440 -4 -22 -8 -53 -15
-69 -15 -34 0 -129 -26 -169 -46 -16 -8 -39 -14 -52 -14 -13 0 -27 -4 -30 -10
-14 -23 -53 -9 -88 33 -19 23 -447 454 -951 957 -604 604 -916 922 -916 935 0
13 359 379 1058 1078 l1058 1057 97 0 c64 0 110 5 134 15 19 8 44 15 55 15 23
0 138 62 193 104 75 58 516 504 536 542 13 27 19 59 19 105 0 58 -4 71 -31
110 -41 57 -504 524 -549 554 -45 28 -105 39 -173 30 l-52 -7 -259 -257 c-249
-247 -346 -354 -346 -383 0 -8 -4 -18 -9 -24 -5 -5 -19 -38 -31 -74 -18 -51
-22 -87 -21 -170 l0 -105 -1067 -1067 c-587 -587 -1071 -1068 -1076 -1068 -14
0 -1675 1662 -1681 1682 -3 9 -2 25 3 35 24 46 61 174 68 233 4 25 12 64 20
88 17 52 19 376 3 437 -6 22 -15 63 -19 90 -12 69 -30 135 -46 167 -8 14 -14
34 -14 43 0 15 -76 176 -124 261 -38 69 -139 195 -222 278 -71 71 -206 181
-244 199 -8 4 -28 16 -45 26 -16 11 -64 36 -105 56 -41 20 -88 42 -103 50 -16
8 -38 15 -50 15 -12 0 -31 7 -41 15 -11 8 -32 15 -47 15 -14 0 -43 7 -62 15
-20 8 -57 15 -82 15 -32 0 -51 6 -65 20 -19 19 -33 20 -210 20 -160 0 -190 -2
-190 -15z"/>
</g>
</svg>
